# xmcd
# 
# Track frame offsets:
#     222
#     18287
#     37370
#     57140
#     78265
#     112327
#     139615
#     157980
#     178125
#     200987
#     214897
#     239022
#     262917
#     281045
#     300892
#     318817
# 
# Disc length: 4407
# 
# Revision: 1
# Processed by: cddbd v1.5.2PL0 Copyright (c) Steve Scherf et al.
# Submitted via: fre:ac v1.0.17
# 
DISCID=e7113510
DTITLE=Various Artist - Silent Dreams Vol. 5
DYEAR=0
DGENRE=New Age
TTITLE0=Adiemus
TTITLE1=Secret Call
TTITLE2=Journey to Shambala
TTITLE3=Across the View
TTITLE4=Silk Road
TTITLE5=Cristofori's Dream
TTITLE6=Silver Wings
TTITLE7=Velocity of Love
TTITLE8=Lonely Rose
TTITLE9=Manrique
TTITLE10=Gu-Cheng
TTITLE11=Papillon (On the Wings of the Butterfly)
TTITLE12=March of Freedom
TTITLE13=Skyline
TTITLE14=MacMillan River Song
TTITLE15=Planet
EXTD=
EXTT0=
EXTT1=
EXTT2=
EXTT3=
EXTT4=
EXTT5=
EXTT6=
EXTT7=
EXTT8=
EXTT9=
EXTT10=
EXTT11=
EXTT12=
EXTT13=
EXTT14=
EXTT15=
PLAYORDER=
